<svg width="33" height="32" fill="none" xmlns="http://www.w3.org/2000/svg"><path d="M6.144 24.416h2.852c2.228 2.198 5.195 3.406 8.382 3.406 6.484 0 11.76-5.118 11.76-11.408v-5.448a.519.519 0 0 0-.526-.511H6.144a.519.519 0 0 0-.527.51v1.555a6.18 6.18 0 0 0-3.818 1.723 5.832 5.832 0 0 0 0 8.428 6.2 6.2 0 0 0 4.345 1.745zm-3.6-9.45a5.137 5.137 0 0 1 3.6-1.446.52.52 0 0 0 .526-.511v-1.532h21.415v4.937c0 5.727-4.803 10.386-10.707 10.386-2.97 0-5.732-1.152-7.776-3.245a.534.534 0 0 0-.382-.16H6.144a5.137 5.137 0 0 1-3.6-1.446 4.832 4.832 0 0 1 0-6.983z" fill="#000"/><path d="M6.144 22.373h1.503a.53.53 0 0 0 .456-.255.498.498 0 0 0 0-.511 10.142 10.142 0 0 1-1.433-5.193v-1.362a.519.519 0 0 0-.526-.51 4.074 4.074 0 0 0-2.855 1.146 3.832 3.832 0 0 0 0 5.538 4.075 4.075 0 0 0 2.855 1.147zm-2.11-5.962a2.99 2.99 0 0 1 1.583-.804v.807c0 1.714.398 3.404 1.157 4.938h-.63a3.011 3.011 0 0 1-2.11-.848 2.832 2.832 0 0 1 0-4.093zm13.344 9.368a9.734 9.734 0 0 0 5.99-2.026.5.5 0 0 0 .085-.718.538.538 0 0 0-.74-.083 8.671 8.671 0 0 1-5.335 1.805c-4.743 0-8.602-3.742-8.602-8.343V13.54c.69.056 1.093.225 1.547.415.582.243 1.241.518 2.49.518 1.25 0 1.91-.275 2.49-.518.56-.234 1.042-.435 2.074-.435 1.033 0 1.515.201 2.074.435.581.243 1.24.518 2.49.518 1.25 0 1.909-.275 2.49-.518.455-.19.858-.359 1.548-.415v2.874a8.093 8.093 0 0 1-1.861 5.176.5.5 0 0 0 .085.718.538.538 0 0 0 .74-.083c1.366-1.67 2.089-3.68 2.089-5.81v-3.406a.504.504 0 0 0-.154-.361.535.535 0 0 0-.373-.15c-1.25 0-1.909.276-2.49.519-.559.233-1.041.435-2.074.435-1.032 0-1.515-.202-2.073-.435-.582-.243-1.241-.519-2.49-.519-1.25 0-1.91.276-2.49.519-.56.233-1.042.435-2.075.435-1.032 0-1.514-.202-2.073-.435-.581-.243-1.24-.519-2.49-.519a.519.519 0 0 0-.527.51v3.406c0 5.164 4.331 9.365 9.655 9.365zm15.095 2.816H2.282a.519.519 0 0 0-.527.51c0 .283.236.511.527.511h.305l.304 1.031C3.114 31.406 3.926 32 4.739 32h25.277c.813 0 1.625-.594 1.849-1.353l.304-1.03h.304a.52.52 0 0 0 .527-.512.519.519 0 0 0-.527-.51zm-1.62 1.772c-.095.32-.494.611-.837.611H4.739c-.343 0-.742-.291-.836-.611l-.22-.75h27.39l-.22.75zM14.545 7.464c1.271 1.233 2.909 1.97 4.38 1.97.965 0 1.793-.31 2.395-.893.783-.76 1.081-1.88.84-3.155-.23-1.206-.922-2.42-1.95-3.417C18.939.736 17.301 0 15.83 0c-.965 0-1.793.309-2.395.892-.783.76-1.081 1.88-.84 3.156.23 1.205.922 2.419 1.95 3.416zm4.92-4.772c.88.852 1.468 1.875 1.659 2.879.135.713.053 1.346-.229 1.835L17.466 4.08a.538.538 0 0 0-.744 0 .5.5 0 0 0 0 .723l3.429 3.326c-.344.186-.76.283-1.225.283-1.199 0-2.558-.625-3.636-1.67-.88-.853-1.468-1.875-1.659-2.88-.135-.712-.053-1.346.23-1.835l1.371 1.331a.534.534 0 0 0 .745 0 .5.5 0 0 0 0-.722l-1.372-1.331c.343-.187.759-.283 1.225-.283 1.198 0 2.557.624 3.635 1.67z" fill="#000"/></svg>