<svg width="25" height="25" fill="none" xmlns="http://www.w3.org/2000/svg"><path d="M21.339 3.661A12.418 12.418 0 0 0 12.5 0C9.161 0 6.022 1.3 3.661 3.661A12.418 12.418 0 0 0 0 12.5c0 3.339 1.3 6.478 3.661 8.839A12.418 12.418 0 0 0 12.5 25c3.339 0 6.478-1.3 8.839-3.661A12.418 12.418 0 0 0 25 12.5c0-3.339-1.3-6.478-3.661-8.839zM12.5 22.981c-5.779 0-10.48-4.702-10.48-10.481S6.72 2.02 12.5 2.02c5.779 0 10.48 4.701 10.48 10.48 0 5.779-4.701 10.48-10.48 10.48z" fill="#FFCB82"/><path d="M16.661 15.233l-3.151-3.151V5.606a1.01 1.01 0 1 0-2.02 0V12.5c0 .268.107.525.296.714l3.447 3.447a1.006 1.006 0 0 0 1.428 0 1.01 1.01 0 0 0 0-1.428z" fill="#FFCB82"/></svg>