<svg width="21" height="25" fill="none" xmlns="http://www.w3.org/2000/svg"><path d="M17.773 3.05A10.343 10.343 0 0 0 10.41 0C7.63 0 5.016 1.083 3.049 3.05A10.343 10.343 0 0 0 0 10.41c0 1.84.536 3.754 1.592 5.69.822 1.507 1.96 3.033 3.385 4.537 2.401 2.534 4.774 4.127 4.874 4.193a1.008 1.008 0 0 0 1.12 0c.1-.066 2.473-1.659 4.873-4.193 1.425-1.504 2.564-3.03 3.386-4.536 1.056-1.937 1.592-3.851 1.592-5.69 0-2.781-1.083-5.395-3.05-7.362zm-7.362 19.7C8.449 21.296 2.02 16.1 2.02 10.41c0-4.626 3.764-8.39 8.39-8.39 4.628 0 8.392 3.764 8.392 8.39 0 5.691-6.43 10.887-8.391 12.34z" fill="#FFCB82"/><path d="M10.41 6.267a4.148 4.148 0 0 0-4.143 4.144 4.148 4.148 0 0 0 4.144 4.144 4.148 4.148 0 0 0 4.144-4.144 4.148 4.148 0 0 0-4.144-4.144zm0 6.268a2.126 2.126 0 0 1-2.123-2.124c0-1.171.953-2.124 2.124-2.124 1.171 0 2.124.953 2.124 2.124a2.126 2.126 0 0 1-2.124 2.124z" fill="#FFCB82"/></svg>