<svg width="25" height="25" fill="none" xmlns="http://www.w3.org/2000/svg"><path d="M22.102 14.874l-.01-.001a13.814 13.814 0 0 1-3.016-.752 3.326 3.326 0 0 0-3.499.747l-.004.004-.908.908a17.452 17.452 0 0 1-5.49-5.491l.911-.912c.908-.918 1.2-2.29.747-3.496a13.82 13.82 0 0 1-.752-3.02l-.001-.009A3.325 3.325 0 0 0 6.77 0H3.312A3.295 3.295 0 0 0 .77 1.192 3.295 3.295 0 0 0 .015 3.63 23.944 23.944 0 0 0 3.71 14.067a23.65 23.65 0 0 0 7.223 7.223 23.948 23.948 0 0 0 10.388 3.695 3.324 3.324 0 0 0 .318.015h.012a3.295 3.295 0 0 0 2.341-.981 3.292 3.292 0 0 0 .962-2.345v-3.448a3.316 3.316 0 0 0-2.852-3.352zm.833 3.316v3.489c0 .346-.133.672-.377.918a1.287 1.287 0 0 1-1.029.379 21.918 21.918 0 0 1-9.5-3.383c-.004-.001-.006-.003-.009-.005a21.615 21.615 0 0 1-6.608-6.608l-.005-.007a21.913 21.913 0 0 1-3.382-9.547 1.298 1.298 0 0 1 1.29-1.406h3.481A1.3 1.3 0 0 1 8.08 3.13c.155 1.18.445 2.343.862 3.459a1.3 1.3 0 0 1-.29 1.366L7.19 9.417a1.01 1.01 0 0 0-.164 1.213 19.469 19.469 0 0 0 7.298 7.298 1.01 1.01 0 0 0 1.213-.164l1.462-1.462a1.3 1.3 0 0 1 1.368-.289 15.83 15.83 0 0 0 3.456.862c.65.093 1.128.658 1.112 1.315z" fill="#FFCB82"/></svg>