<svg width="33" height="32" fill="none" xmlns="http://www.w3.org/2000/svg"><path d="M14.394 8.687a.53.53 0 0 0 .526.532.53.53 0 0 0 .527-.532c0-.55.128-.798.291-1.113.193-.373.41-.795.41-1.605 0-.81-.217-1.233-.41-1.605-.163-.316-.291-.564-.291-1.114 0-.549.128-.798.291-1.113.193-.373.41-.795.41-1.605A.53.53 0 0 0 15.623 0a.53.53 0 0 0-.526.532c0 .55-.129.798-.292 1.113-.192.373-.41.795-.41 1.605 0 .81.218 1.233.41 1.606.163.315.292.564.292 1.113s-.129.798-.292 1.113c-.192.373-.41.795-.41 1.605zm4.212 0a.53.53 0 0 0 .527.532.53.53 0 0 0 .527-.532c0-.55.128-.798.29-1.113.193-.373.412-.795.412-1.605 0-.81-.218-1.233-.411-1.605-.163-.316-.291-.564-.291-1.114 0-.549.128-.798.29-1.113.194-.373.412-.795.412-1.605A.53.53 0 0 0 19.835 0a.53.53 0 0 0-.527.532c0 .55-.128.798-.29 1.113-.193.373-.412.795-.412 1.605 0 .81.219 1.233.411 1.606.163.315.291.564.291 1.113s-.128.798-.29 1.113c-.193.373-.412.795-.412 1.605zm13.867 19.767H2.282a.53.53 0 0 0-.527.532.53.53 0 0 0 .527.532h.305l.304 1.073C3.114 31.381 3.926 32 4.739 32h25.277c.813 0 1.625-.619 1.849-1.409l.304-1.073h.304a.53.53 0 0 0 .527-.532.53.53 0 0 0-.527-.532zm-1.62 1.845c-.095.334-.494.637-.837.637H4.739c-.343 0-.742-.303-.836-.637l-.22-.781h27.39l-.22.781zM6.536 18.855h.66c.157 0 .306-.07.406-.192a.536.536 0 0 0 .113-.437c-.111-.6-.167-1.215-.167-1.827v-3.457a.53.53 0 0 0-.527-.532H2.902a.527.527 0 0 0-.49.337 4.476 4.476 0 0 0-.306 1.634c0 2.467 1.987 4.474 4.43 4.474zM3.28 13.474h3.215v2.925c0 .465.029.93.087 1.392h-.046c-1.862 0-3.376-1.53-3.376-3.41 0-.31.04-.614.12-.907z" fill="#000"/><path d="M6.536 20.983h.947c1.774 3.904 5.62 6.408 9.895 6.408 6 0 10.883-4.931 10.883-10.992v-5.585a.53.53 0 0 0-.527-.531H1.677a.525.525 0 0 0-.426.218A6.59 6.59 0 0 0 0 14.381c0 3.64 2.932 6.602 6.536 6.602zm-4.584-9.637H24.4v2.305a.53.53 0 0 0 .526.532.53.53 0 0 0 .527-.532v-2.305h1.755V16.4c0 5.474-4.41 9.928-9.83 9.928-3.968 0-7.526-2.388-9.064-6.083a.527.527 0 0 0-.486-.325H6.536c-3.023 0-5.483-2.484-5.483-5.538 0-1.088.31-2.132.9-3.035z" fill="#000"/><path d="M17.378 24.554c4.452 0 8.074-3.658 8.074-8.155v-.62a.53.53 0 0 0-.527-.533.53.53 0 0 0-.526.532v.621c0 3.91-3.15 7.091-7.021 7.091a.53.53 0 0 0-.527.532.53.53 0 0 0 .527.532z" fill="#000"/></svg>