<svg width="33" height="28" fill="none" xmlns="http://www.w3.org/2000/svg"><path d="M32.473 24.407H2.282a.533.533 0 0 0-.527.539c0 .298.236.539.527.539h.305l.304 1.088c.223.8 1.035 1.427 1.848 1.427h25.277c.813 0 1.625-.627 1.849-1.427l.304-1.088h.304a.533.533 0 0 0 .527-.539.533.533 0 0 0-.527-.539zm-1.62 1.87c-.095.337-.494.645-.837.645H4.739c-.343 0-.742-.308-.836-.646l-.22-.791h27.39l-.22.791zM6.144 17.843h1.503a.525.525 0 0 0 .456-.27.55.55 0 0 0 0-.54 11.152 11.152 0 0 1-1.433-5.478v-1.437a.533.533 0 0 0-.526-.54c-1.079 0-2.093.43-2.855 1.21a4.154 4.154 0 0 0-1.183 2.923c0 1.103.42 2.141 1.183 2.921a3.965 3.965 0 0 0 2.855 1.21zm-2.11-6.292c.437-.447.986-.74 1.583-.847v.85c0 1.81.398 3.593 1.157 5.21h-.63a2.931 2.931 0 0 1-2.11-.894 3.071 3.071 0 0 1-.874-2.16c0-.815.31-1.582.874-2.159z" fill="#000"/><path d="M6.144 19.998h2.852c2.228 2.32 5.195 3.593 8.382 3.593 6.484 0 11.76-5.4 11.76-12.036V5.806a.533.533 0 0 0-.526-.539h-1.616c-.259-1.989-1.926-3.529-3.939-3.529-.741 0-1.459.21-2.08.601C20.334.931 18.945 0 17.377 0c-1.566 0-2.956.93-3.599 2.34a3.895 3.895 0 0 0-2.08-.602c-2.013 0-3.68 1.54-3.939 3.53H6.144a.533.533 0 0 0-.527.538v1.64a6.039 6.039 0 0 0-3.818 1.819A6.322 6.322 0 0 0 0 13.71c0 1.68.64 3.258 1.8 4.446a6.034 6.034 0 0 0 4.344 1.841zm19.835-8.963c-.92.069-1.47.31-1.964.528-.559.246-1.041.459-2.074.459-1.032 0-1.515-.213-2.073-.46-.582-.255-1.241-.546-2.49-.546-1.25 0-1.91.29-2.49.547-.56.246-1.042.459-2.075.459-1.032 0-1.514-.213-2.073-.46-.494-.217-1.044-.458-1.963-.527v-4.69h17.202v4.69zm-14.28-8.219c.734 0 1.436.28 1.977.79a.52.52 0 0 0 .508.12.534.534 0 0 0 .36-.386c.325-1.332 1.49-2.262 2.834-2.262 1.343 0 2.508.93 2.834 2.262a.534.534 0 0 0 .36.386.518.518 0 0 0 .507-.12c.54-.51 1.243-.79 1.978-.79 1.431 0 2.624 1.059 2.873 2.451H8.825c.249-1.392 1.442-2.451 2.873-2.451zm-9.155 7.21a4.999 4.999 0 0 1 3.6-1.525c.29 0 .526-.241.526-.54V6.346h1.053v5.21c0 5.448 4.331 9.88 9.655 9.88a9.41 9.41 0 0 0 5.99-2.137.548.548 0 0 0 .086-.757.519.519 0 0 0-.74-.088 8.381 8.381 0 0 1-5.336 1.905c-4.559 0-8.3-3.648-8.583-8.241.678.061 1.079.237 1.528.436.582.256 1.241.547 2.49.547 1.25 0 1.91-.29 2.49-.547.56-.247 1.042-.46 2.074-.46 1.033 0 1.515.213 2.074.46.582.256 1.24.547 2.49.547 1.25 0 1.91-.29 2.49-.547.45-.198.851-.375 1.529-.436a8.81 8.81 0 0 1-1.842 4.9.548.548 0 0 0 .085.756.518.518 0 0 0 .74-.087 9.916 9.916 0 0 0 2.089-6.131v-5.21h1.053v5.21c0 6.042-4.803 10.958-10.707 10.958-2.97 0-5.732-1.216-7.775-3.424a.52.52 0 0 0-.383-.168H6.144a4.999 4.999 0 0 1-3.6-1.526 5.238 5.238 0 0 1-1.49-3.684c0-1.392.529-2.7 1.49-3.684z" fill="#000"/></svg>