<svg width="36" height="49" fill="none" xmlns="http://www.w3.org/2000/svg"><path fill-rule="evenodd" clip-rule="evenodd" d="M29.859 23.886c-.107-1.17-.497-1.959-1.147-2.34-.471-.278-1.034-.328-1.551-.293v.054c0 2.271-.528 4.404-1.445 6.224 3.22-.397 4.421-.635 4.143-3.645z" fill="#101623"/><path fill-rule="evenodd" clip-rule="evenodd" d="M18.195 0c1.126 4.71 2.454 11.861 2.211 18.63h6.506c.081.411.137.828.183 1.25.745-.05 1.587.044 2.343.48 1.064.625 1.683 1.766 1.835 3.407.411 4.423-2.272 4.755-5.67 5.177-.253.03-.511.064-.775.099-1.836 2.648-4.6 4.359-7.703 4.463-.75 4.78-.203 9.977.73 14.499 9.57-.759 17.15-11.222 17.15-24.015C35 11.34 27.597.982 18.195 0z" fill="#101623"/><path fill-rule="evenodd" clip-rule="evenodd" d="M6.48 21.312c0-.922.087-1.82.254-2.682h9.858c.234-6.565-1.004-13.483-2.104-18.189C6.212 2.732 0 12.401 0 23.985 0 35.301 5.923 44.782 13.91 47.36c-.893-4.587-1.36-9.793-.487-14.529-4.042-1.66-6.942-6.193-6.942-11.519z" fill="#FFCB82"/></svg>