<svg width="22" height="22" fill="none" xmlns="http://www.w3.org/2000/svg"><path d="M16.2 8.164h-2.364V5.801a.86.86 0 1 0-1.719 0v2.363H9.754a.86.86 0 1 0 0 1.719h2.363v2.363a.86.86 0 1 0 1.719 0V9.883h2.363a.86.86 0 1 0 0-1.719z" fill="#000"/><path d="M12.977 0C8 0 3.953 4.048 3.953 9.023c0 2.19.784 4.199 2.085 5.763L.254 20.531a.86.86 0 0 0 1.21 1.22l5.793-5.753a8.982 8.982 0 0 0 5.72 2.049 9.028 9.028 0 0 0 4.417-1.154.86.86 0 1 0-.843-1.498 7.306 7.306 0 0 1-10.88-6.372c0-4.027 3.278-7.304 7.306-7.304a7.308 7.308 0 0 1 6.35 10.918.86.86 0 1 0 1.493.851A9.026 9.026 0 0 0 22 9.023C22 4.048 17.952 0 12.977 0z" fill="#000"/></svg>