<svg width="51" height="61" fill="none" xmlns="http://www.w3.org/2000/svg"><path d="M43.531 7.44C38.715 2.642 32.311 0 25.5 0 18.689 0 12.285 2.642 7.469 7.44 2.652 12.238 0 18.617 0 25.403c0 4.486 1.312 9.157 3.9 13.883 2.012 3.675 4.802 7.4 8.291 11.068 5.88 6.184 11.692 10.07 11.937 10.232a2.477 2.477 0 0 0 2.744 0c.245-.162 6.056-4.048 11.937-10.232 3.49-3.669 6.279-7.393 8.291-11.068C49.688 34.56 51 29.89 51 25.403c0-6.786-2.652-13.165-7.469-17.963zm-18.03 48.068C20.694 51.964 4.946 39.285 4.946 25.403c0-11.29 9.22-20.475 20.553-20.475s20.553 9.185 20.553 20.475c0 13.883-15.75 26.562-20.553 30.105z" fill="#FFCB82"/><path d="M25.5 15.292c-5.596 0-10.149 4.536-10.149 10.11 0 5.575 4.553 10.11 10.149 10.11 5.596 0 10.15-4.535 10.149-10.11 0-5.574-4.553-10.11-10.149-10.11zm0 15.293c-2.868 0-5.202-2.325-5.202-5.182 0-2.858 2.334-5.182 5.202-5.182s5.202 2.324 5.202 5.182c0 2.857-2.334 5.182-5.202 5.182z" fill="#FFCB82"/></svg>