<svg width="53" height="47" fill="none" xmlns="http://www.w3.org/2000/svg"><path opacity=".2" d="M45.977 20.059l.01-15.576a3.447 3.447 0 0 0-3.445-3.448l-15.596-.009a2.3 2.3 0 0 0-1.627.673L2.038 24.982a3.446 3.446 0 0 0 0 4.874l15.11 15.11a3.447 3.447 0 0 0 4.874 0l23.284-23.284c.43-.43.672-1.014.672-1.623z" fill="#FFCB82"/><path d="M40.575 9.184a2.757 2.757 0 1 1-5.515 0 2.757 2.757 0 0 1 5.515 0z" fill="#fff"/><path d="M6.566 27.42L26.028 7.957l13.016 13.016-19.462 19.461L6.566 27.42z" fill="#FFCB82"/><path d="M25.348 29.393a2 2 0 1 1-4 0 2 2 0 0 1 4 0z" fill="#fff"/><path d="M25.856 19.001a2 2 0 1 1-4 0 2 2 0 0 1 4 0z" fill="#FFF5E6"/><path d="M16.567 25.898a1.026 1.026 0 0 0 1.264.713l10.537-2.933a1.027 1.027 0 0 0-.55-1.977L17.28 24.634a1.027 1.027 0 0 0-.713 1.264z" fill="#101623"/><path d="M49.065 8.158H47.01l.002-3.674a4.478 4.478 0 0 0-4.47-4.475L26.944 0h-.002c-.887 0-1.722.346-2.35.974L1.31 24.257A4.443 4.443 0 0 0 0 27.419c0 1.195.465 2.318 1.31 3.163l15.11 15.11A4.46 4.46 0 0 0 19.583 47a4.46 4.46 0 0 0 3.163-1.308l14.659-14.66a1.026 1.026 0 1 0-1.452-1.45L21.293 44.24a2.423 2.423 0 0 1-3.421 0L2.762 29.13a2.404 2.404 0 0 1-.71-1.712c0-.646.253-1.254.71-1.71L26.044 2.424c.24-.24.56-.372.9-.372l15.596.009a2.423 2.423 0 0 1 2.42 2.421l-.006 8.602h-4.623c-.398 0-.759-.163-1.02-.425.43-.184.833-.45 1.183-.8a3.788 3.788 0 0 0 0-5.351 3.788 3.788 0 0 0-5.352 0 3.788 3.788 0 0 0 0 5.35 3.762 3.762 0 0 0 1.929 1.033 3.495 3.495 0 0 0 3.26 2.245h4.622l-.003 4.921c0 .34-.132.659-.372.898l-2.818 2.819a1.027 1.027 0 0 0 1.451 1.452l2.819-2.819a3.304 3.304 0 0 0 .973-2.349l.003-4.922h2.059a3.494 3.494 0 0 0 3.49-3.49 3.494 3.494 0 0 0-3.49-3.49zm-12.47-.198c.337-.337.78-.506 1.223-.506a1.727 1.727 0 0 1 1.492.856 3.504 3.504 0 0 0-2.336 2.384 1.733 1.733 0 0 1-.38-2.733zm12.47 5.125h-2.058l.002-2.875h2.056a1.439 1.439 0 0 1 0 2.874z" fill="#101623"/><path d="M21.207 27.253a3.007 3.007 0 0 0-.887 2.14c0 .809.315 1.569.887 2.14.59.59 1.365.885 2.14.885a3.02 3.02 0 0 0 2.14-.884 3.03 3.03 0 0 0 0-4.28 3.03 3.03 0 0 0-4.28 0zm2.828 2.829a.975.975 0 0 1-1.377-1.377.972.972 0 0 1 1.377 0c.38.38.38.997 0 1.377zm1.96-8.941a3.03 3.03 0 0 0 0-4.28 3.008 3.008 0 0 0-2.14-.886c-.808 0-1.569.314-2.14.886a3.03 3.03 0 0 0 0 4.28c.59.59 1.365.885 2.14.885.775 0 1.55-.295 2.14-.885zm-2.828-2.828a.967.967 0 0 1 .688-.285.975.975 0 1 1-.688 1.662.975.975 0 0 1 0-1.377z" fill="#101623"/><path d="M10.208 23.777a1.027 1.027 0 0 0-1.452 0L5.84 26.694a1.026 1.026 0 0 0 0 1.451l13.016 13.017a1.024 1.024 0 0 0 1.452 0L39.768 21.7a1.027 1.027 0 0 0 0-1.452L26.754 7.232a1.027 1.027 0 0 0-1.452 0L14.563 17.971a1.027 1.027 0 0 0 1.452 1.451L26.027 9.41l11.565 11.564-18.01 18.01L8.017 27.42l2.191-2.191c.4-.401.401-1.05 0-1.452zm29.375 2.6c-.27 0-.535.11-.726.3-.19.192-.3.457-.3.726 0 .27.11.535.3.726.191.191.456.3.726.3.27 0 .535-.109.726-.3.19-.19.3-.456.3-.726 0-.27-.11-.534-.3-.725a1.035 1.035 0 0 0-.726-.301z" fill="#101623"/><path d="M13.111 22.325a1.028 1.028 0 0 0 0-1.452c-.19-.19-.455-.3-.725-.3-.27 0-.535.11-.726.3a1.03 1.03 0 0 0 .726 1.752c.27 0 .534-.108.725-.3z" fill="#101623"/></svg>