<svg width="50" height="50" fill="none" xmlns="http://www.w3.org/2000/svg"><path opacity=".2" d="M40.187 22.213c-2.734 0-3.989 1.63-5.365 3.127-.179 5.258-4.497 9.465-9.799 9.465-5.415 0-9.804-4.39-9.804-9.805a9.9 9.9 0 0 1 .005-.34c-1.376 1.497-2.63 3.127-5.365 3.127-4.542 0-5.002-4.502-8.717-5.414C1.048 23.236 1 24.113 1 25c0 13.268 10.756 24.023 24.023 24.023 12.38 0 22.573-9.364 23.882-21.396-3.715-.912-4.176-5.414-8.718-5.414z" fill="#FFCB82"/><path d="M46.866 15.301a4.582 4.582 0 0 1-7.884-3.418 4.584 4.584 0 0 1-1.989-7.634A23.912 23.912 0 0 0 24.881.977C12.501.977 2.31 10.34 1 22.373c3.715.912 4.175 5.414 8.717 5.414 2.734 0 3.99-1.63 5.365-3.128.18-5.257 4.498-9.464 9.8-9.464 5.414 0 9.804 4.39 9.804 9.805 0 .114-.002.227-.006.34 1.376-1.497 2.631-3.127 5.365-3.127 4.542 0 5.002 4.502 8.718 5.414A24.3 24.3 0 0 0 48.905 25c0-3.451-.728-6.733-2.039-9.699z" fill="#FFCB82"/><path d="M25 39.77c-5.528 0-10.552-3.054-13.112-7.973a.976.976 0 1 1 1.732-.901A12.796 12.796 0 0 0 25 37.818c5.119 0 9.733-3.01 11.757-7.67a.977.977 0 0 1 1.791.778C36.215 36.3 30.897 39.771 25 39.771zm4.589-29.802a.977.977 0 0 1-.258-.035l-5.638-1.535a.976.976 0 1 1 .513-1.885l5.639 1.536a.977.977 0 0 1-.256 1.919zm10.153 10.383a.974.974 0 0 1-.713-.31l-2.196-2.349a.977.977 0 1 1 1.428-1.333l2.195 2.349a.977.977 0 0 1-.714 1.643zm-27.79-2.609a.976.976 0 0 1-.83-1.489l2.117-3.44a.977.977 0 0 1 1.663 1.023l-2.117 3.441a.976.976 0 0 1-.833.465zm6.462-6.962a.972.972 0 0 1-.534-.16l-2.481-1.624a.977.977 0 0 1 1.07-1.634l2.48 1.624a.977.977 0 0 1-.535 1.793z" fill="#101623"/><path d="M47.878 14.906a.976.976 0 0 0-1.598-.28 3.575 3.575 0 0 1-2.603 1.11 3.61 3.61 0 0 1-3.6-3.8.977.977 0 0 0-.707-.992 3.62 3.62 0 0 1-2.612-3.467c0-.958.372-1.86 1.047-2.54a.977.977 0 0 0-.2-1.531A24.986 24.986 0 0 0 25 0C18.8 0 12.852 2.286 8.253 6.438A24.944 24.944 0 0 0 .148 22.267C.05 23.17 0 24.087 0 25c0 6.678 2.6 12.956 7.322 17.678C12.044 47.4 18.322 50 25 50c6.2 0 12.148-2.286 16.747-6.438a24.945 24.945 0 0 0 8.105-15.829A25.41 25.41 0 0 0 50 25a24.82 24.82 0 0 0-2.122-10.094zM25 48.046C12.292 48.047 1.953 37.709 1.953 25c0-.41.011-.82.033-1.23.774.454 1.39 1.134 2.072 1.886 1.32 1.457 2.818 3.108 5.778 3.108 2.103 0 3.467-.834 4.555-1.839.91 5.03 5.321 8.856 10.609 8.856 2.815 0 5.478-1.078 7.5-3.036a10.72 10.72 0 0 0 3.256-7.006l.076-.083c1.2-1.324 2.236-2.467 4.331-2.467s3.131 1.143 4.332 2.467c.88.97 1.86 2.05 3.317 2.647C46.196 39.613 36.524 48.047 25 48.047zM16.172 25A8.79 8.79 0 0 1 25 16.172c4.868 0 8.828 3.96 8.828 8.828A8.79 8.79 0 0 1 25 33.828c-4.868 0-8.828-3.96-8.828-8.828zm31.842 1.23c-.774-.454-1.39-1.134-2.073-1.886-1.32-1.457-2.818-3.108-5.778-3.108-2.102 0-3.467.833-4.554 1.838-.911-5.03-5.322-8.855-10.61-8.855a10.727 10.727 0 0 0-7.498 3.035 10.72 10.72 0 0 0-3.257 7.005l-.077.085c-1.2 1.323-2.237 2.466-4.331 2.466-2.095 0-3.131-1.143-4.331-2.466-.88-.97-1.86-2.05-3.317-2.648C3.804 10.386 13.476 1.953 25 1.953c3.714 0 7.368.895 10.636 2.596a5.524 5.524 0 0 0-.831 2.928c0 .575.09 1.136.258 1.666l-2.19 2.343A.977.977 0 1 0 34.3 12.82l1.738-1.86a5.563 5.563 0 0 0 2.097 1.61 5.566 5.566 0 0 0 8.44 4.307A22.901 22.901 0 0 1 48.047 25c0 .41-.011.82-.032 1.23z" fill="#101623"/><path d="M8.3 22.47a.976.976 0 0 1-.832-.465l-1.303-2.118a.976.976 0 1 1 1.663-1.024l1.303 2.118a.976.976 0 0 1-.83 1.489zm30.328 5.562a.976.976 0 1 0 0-1.952.976.976 0 0 0 0 1.952z" fill="#101623"/></svg>