<svg width="50" height="50" fill="none" xmlns="http://www.w3.org/2000/svg"><path opacity=".2" d="M24.997 49.024c13.267 0 24.021-4.57 24.021-10.207 0-5.637-10.754-10.207-24.02-10.207C11.73 28.61.976 33.18.976 38.817c0 5.637 10.754 10.207 24.02 10.207z" fill="#FFCB82"/><path opacity=".45" d="M24.997 41.401c7.651 0 13.853-2.065 13.853-4.613 0-2.548-6.202-4.614-13.853-4.614-7.65 0-13.852 2.066-13.852 4.614S17.346 41.4 24.997 41.4z" fill="#FFCB82"/><path d="M38.374 14.366c0-7.395-5.994-13.39-13.389-13.39s-13.39 5.995-13.39 13.39c0 3.238 1.15 6.207 3.063 8.522h-.008l10.335 13.24 10.385-13.31h-.001a13.333 13.333 0 0 0 3.005-8.452zM24.985 22.39a7.812 7.812 0 1 1 0-15.623 7.812 7.812 0 0 1 0 15.623z" fill="#FFCB82"/><path d="M37.008 30.96a.985.985 0 0 1-.194-.02l-.034-.006a.977.977 0 0 1 .386-1.915l.034.007a.977.977 0 0 1-.192 1.934zm-20.352 3.12a.977.977 0 1 1 .002-1.953.977.977 0 0 1-.002 1.954zm8.329 3.025a.977.977 0 0 1-.77-.375L13.88 23.489a.909.909 0 0 1-.05-.07 14.388 14.388 0 0 1-3.21-9.053C10.618 6.445 17.063 0 24.984 0S39.35 6.445 39.35 14.366a14.397 14.397 0 0 1-3.212 9.053L25.755 36.73a.976.976 0 0 1-.77.376zM15.49 22.378l9.495 12.164 9.591-12.294a12.437 12.437 0 0 0 2.822-7.882c0-6.845-5.569-12.413-12.413-12.413-6.845 0-12.413 5.568-12.413 12.413a12.43 12.43 0 0 0 2.838 7.9c.03.036.056.073.08.112z" fill="#101623"/><path d="M24.983 23.368a8.73 8.73 0 0 1-6.214-2.574 8.73 8.73 0 0 1-2.574-6.214c0-2.347.915-4.554 2.574-6.214a8.788 8.788 0 0 1 8.716-2.212.976.976 0 1 1-.555 1.873 6.836 6.836 0 0 0-6.78 1.72 6.79 6.79 0 0 0-2.002 4.833 6.79 6.79 0 0 0 2.002 4.833 6.79 6.79 0 0 0 4.833 2.002 6.79 6.79 0 0 0 4.833-2.002 6.838 6.838 0 0 0 1.723-6.774.976.976 0 1 1 1.873-.553 8.789 8.789 0 0 1-2.214 8.708 8.731 8.731 0 0 1-6.215 2.574z" fill="#101623"/><path d="M30.525 10.05a.97.97 0 0 1-.69-.287l-.018-.017a.976.976 0 1 1 1.381-1.38l.017.016a.977.977 0 0 1-.69 1.668zM24.997 50c-6.544 0-12.712-1.09-17.367-3.068C2.71 44.842 0 41.959 0 38.816c0-2.696 1.956-5.176 5.656-7.171 3.371-1.819 8.093-3.13 13.295-3.692a.976.976 0 1 1 .21 1.942c-4.957.535-9.424 1.768-12.578 3.469-2.986 1.61-4.63 3.546-4.63 5.452 0 2.276 2.347 4.58 6.44 6.319 4.42 1.877 10.316 2.911 16.604 2.911 6.288 0 12.185-1.034 16.604-2.911 4.093-1.74 6.44-4.043 6.44-6.319 0-2.692-3.234-5.364-8.653-7.147a.977.977 0 0 1 .61-1.855c6.353 2.09 9.997 5.372 9.997 9.002 0 3.143-2.71 6.025-7.63 8.116-4.656 1.978-10.823 3.067-17.368 3.067z" fill="#101623"/><path d="M24.998 42.379c-7.37 0-14.83-1.92-14.83-5.59 0-.928.51-2.282 2.94-3.47a.976.976 0 1 1 .86 1.753c-1.157.566-1.847 1.207-1.847 1.716 0 .557.888 1.503 3.39 2.336 2.52.84 5.889 1.301 9.487 1.301s6.967-.462 9.487-1.3c2.502-.834 3.39-1.78 3.39-2.337 0-1.154-3.396-3.019-9.772-3.518a.976.976 0 1 1 .153-1.947c5.338.418 11.572 2.1 11.572 5.465 0 3.67-7.46 5.59-14.83 5.59z" fill="#101623"/></svg>