<svg width="30" height="28" fill="none" xmlns="http://www.w3.org/2000/svg"><path d="M29.936 13.027c-.313-2.368-1.88-4.507-4.098-5.564-1.06-.505-2.134-.757-3.206-.733l-.519.012.085-.505a5.24 5.24 0 0 0-.193-2.548c-.64-1.934-2.339-3.365-4.316-3.64A6.465 6.465 0 0 0 16.954 0h-.326a5.423 5.423 0 0 0-3.797 1.887l-.289.336-.325-.3A7.262 7.262 0 0 0 7.274 0c-.482 0-.976.048-1.458.144C2.959.697.68 2.98.138 5.816c-.422 2.175.133 4.399 1.52 6.069a7.208 7.208 0 0 0 5.038 2.62l.554.048-.193.516a5.36 5.36 0 0 0-.301 1.37c0 .049 0 .097-.012.145v.3c0 .42.036.793.108 1.13.434 2.019 2.002 3.617 3.99 4.074.868.192 1.76.192 2.592-.024l.326-.085.156.3a13.353 13.353 0 0 1 1.483 5.54l.012.181 1.085-.024-.012-.18a14.247 14.247 0 0 0-2.025-6.766l-.241-.409-.434.18a4.216 4.216 0 0 1-1.676.337c-.337 0-.675-.036-1.012-.12-1.555-.36-2.833-1.658-3.17-3.245a4.79 4.79 0 0 1-.097-.937c0-.036 0-.084.012-.096v-.024c.012-.289.048-.553.096-.805.012-.036.012-.06.024-.072v-.012a4.32 4.32 0 0 1 .808-1.61l.097-.12.012-.013a4.307 4.307 0 0 1 2.652-1.454l.156-.024v-1.082l-.205.025a5.403 5.403 0 0 0-3.339 1.718l-.108.12-.157.012a5.721 5.721 0 0 1-.603.036 6.204 6.204 0 0 1-4.797-2.259C1.307 9.77.837 7.883 1.199 6.021c.47-2.404 2.41-4.339 4.822-4.82.41-.083.82-.12 1.241-.12a6.23 6.23 0 0 1 4.557 1.983l.18.193-.084.24a5.522 5.522 0 0 0-.301 1.226l-.036.204h1.085l.024-.156a4.43 4.43 0 0 1 .277-1.022l.157-.324a4.386 4.386 0 0 1 1.157-1.418l.036-.036c.036-.024.072-.06.109-.096.096-.072.193-.12.277-.169l.048-.036c.133-.084.241-.132.338-.18a6.01 6.01 0 0 1 .313-.132c.12-.048.265-.096.446-.132.024-.012.048-.012.072-.024.06-.012.133-.036.205-.048.253-.048.506-.072.748-.072h.048c.205 0 .41.012.603.036 1.579.216 2.929 1.358 3.435 2.908a4.064 4.064 0 0 1-.229 3.16l-.482 1.01 1.097-.24a6.559 6.559 0 0 1 1.35-.157c.904 0 1.772.204 2.652.625 1.892.913 3.23 2.716 3.496 4.735a6.118 6.118 0 0 1-1.483 4.915c-1.17 1.334-2.881 2.09-4.69 2.09-.096 0-.192 0-.277-.011a6.2 6.2 0 0 1-5.026-3.005l-.085-.144-.988.469.096.168c.953 1.635 2.496 2.812 4.34 3.329l.506.144-.253.457a14.232 14.232 0 0 0-1.712 6.2l-.012.193 1.085-.024.012-.168a13.263 13.263 0 0 1 1.88-6.225l.037-.06v-.217h.422a7.357 7.357 0 0 0 5.485-2.475 7.243 7.243 0 0 0 1.76-5.768z" fill="#000"/><path d="M23.27 16.271l-.132.036v1.094l.217-.036A3.418 3.418 0 0 0 26.15 14a3.43 3.43 0 0 0-2.796-3.365l-.217-.036v1.094l.132.036A2.341 2.341 0 0 1 25.067 14a2.328 2.328 0 0 1-1.797 2.271zM6.72 4.987l.132-.036V3.858l-.216.036A3.441 3.441 0 0 0 3.85 7.27a3.43 3.43 0 0 0 2.797 3.365l.217.036V9.578l-.133-.036A2.328 2.328 0 0 1 4.936 7.27c0-1.081.735-2.018 1.784-2.283z" fill="#000"/></svg>